<?xml version="1.0" encoding="utf-8" standalone="no"?>
<!DOCTYPE svg PUBLIC "-//W3C//DTD SVG 1.1//EN"
  "http://www.w3.org/Graphics/SVG/1.1/DTD/svg11.dtd">
<svg xmlns:xlink="http://www.w3.org/1999/xlink" width="460.8pt" height="345.6pt" viewBox="0 0 460.8 345.6" xmlns="http://www.w3.org/2000/svg" version="1.1">
 <metadata>
  <rdf:RDF xmlns:dc="http://purl.org/dc/elements/1.1/" xmlns:cc="http://creativecommons.org/ns#" xmlns:rdf="http://www.w3.org/1999/02/22-rdf-syntax-ns#">
   <cc:Work>
    <dc:type rdf:resource="http://purl.org/dc/dcmitype/StillImage"/>
    <dc:date>2025-03-21T18:08:31.575789</dc:date>
    <dc:format>image/svg+xml</dc:format>
    <dc:creator>
     <cc:Agent>
      <dc:title>Matplotlib v3.10.1, https://matplotlib.org/</dc:title>
     </cc:Agent>
    </dc:creator>
   </cc:Work>
  </rdf:RDF>
 </metadata>
 <defs>
  <style type="text/css">*{stroke-linejoin: round; stroke-linecap: butt}</style>
 </defs>
 <g id="figure_1">
  <g id="patch_1">
   <path d="M 0 345.6 
L 460.8 345.6 
L 460.8 0 
L 0 0 
z
" style="fill: #ffffff"/>
  </g>
  <g id="axes_1">
   <g id="patch_2">
    <path d="M 47.944873 312.199305 
Q 87.589855 295.208598 126.207202 278.658307 
" clip-path="url(#pcf16900809)" style="fill: none; stroke: #4c4c4c; stroke-linecap: round"/>
    <path d="M 124.867876 278.579523 
L 126.207202 278.658307 
L 125.340579 279.682497 
" clip-path="url(#pcf16900809)" style="fill: none; stroke: #4c4c4c; stroke-linecap: round"/>
   </g>
   <g id="patch_3">
    <path d="M 46.916335 269.609915 
Q 135.193491 203.402048 222.57622 137.865002 
" clip-path="url(#pcf16900809)" style="fill: none; stroke: #4c4c4c; stroke-linecap: round"/>
    <path d="M 221.25622 138.105002 
L 222.57622 137.865002 
L 221.97622 139.065002 
" clip-path="url(#pcf16900809)" style="fill: none; stroke: #4c4c4c; stroke-linecap: round"/>
   </g>
   <g id="patch_4">
    <path d="M 43.649128 266.959188 
Q 87.590681 172.798719 131.059432 79.651394 
" clip-path="url(#pcf16900809)" style="fill: none; stroke: #4c4c4c; stroke-linecap: round"/>
    <path d="M 130.00826 80.485082 
L 131.059432 79.651394 
L 131.09568 80.992545 
" clip-path="url(#pcf16900809)" style="fill: none; stroke: #4c4c4c; stroke-linecap: round"/>
   </g>
   <g id="patch_5">
    <path d="M 48.22961 272.157602 
Q 135.191121 244.205688 221.088231 216.595902 
" clip-path="url(#pcf16900809)" style="fill: none; stroke: #4c4c4c; stroke-linecap: round"/>
    <path d="M 219.762191 216.391896 
L 221.088231 216.595902 
L 220.129402 217.53433 
" clip-path="url(#pcf16900809)" style="fill: none; stroke: #4c4c4c; stroke-linecap: round"/>
   </g>
   <g id="patch_6">
    <path d="M 48.5957 233.081866 
Q 135.191039 223.803794 220.674706 214.644829 
" clip-path="url(#pcf16900809)" style="fill: none; stroke: #4c4c4c; stroke-linecap: round"/>
    <path d="M 219.417615 214.176084 
L 220.674706 214.644829 
L 219.545455 215.369255 
" clip-path="url(#pcf16900809)" style="fill: none; stroke: #4c4c4c; stroke-linecap: round"/>
   </g>
   <g id="patch_7">
    <path d="M 48.22961 231.354768 
Q 135.191121 203.402854 221.088231 175.793069 
" clip-path="url(#pcf16900809)" style="fill: none; stroke: #4c4c4c; stroke-linecap: round"/>
    <path d="M 219.762191 175.589062 
L 221.088231 175.793069 
L 220.129402 176.731497 
" clip-path="url(#pcf16900809)" style="fill: none; stroke: #4c4c4c; stroke-linecap: round"/>
   </g>
   <g id="patch_8">
    <path d="M 48.559381 232.779592 
Q 182.794294 213.603176 315.922409 194.584874 
" clip-path="url(#pcf16900809)" style="fill: none; stroke: #4c4c4c; stroke-linecap: round"/>
    <path d="M 314.649617 194.16061 
L 315.922409 194.584874 
L 314.819323 195.34855 
" clip-path="url(#pcf16900809)" style="fill: none; stroke: #4c4c4c; stroke-linecap: round"/>
   </g>
   <g id="patch_9">
    <path d="M 48.22961 190.551935 
Q 135.191121 162.600021 221.088231 134.990235 
" clip-path="url(#pcf16900809)" style="fill: none; stroke: #4c4c4c; stroke-linecap: round"/>
    <path d="M 219.762191 134.786229 
L 221.088231 134.990235 
L 220.129402 135.928663 
" clip-path="url(#pcf16900809)" style="fill: none; stroke: #4c4c4c; stroke-linecap: round"/>
   </g>
   <g id="patch_10">
    <path d="M 47.944873 196.61203 
Q 87.589855 213.602736 126.207202 230.153027 
" clip-path="url(#pcf16900809)" style="fill: none; stroke: #4c4c4c; stroke-linecap: round"/>
    <path d="M 125.340579 229.128837 
L 126.207202 230.153027 
L 124.867876 230.231811 
" clip-path="url(#pcf16900809)" style="fill: none; stroke: #4c4c4c; stroke-linecap: round"/>
   </g>
   <g id="patch_11">
    <path d="M 47.944873 155.809196 
Q 87.589855 172.799903 126.207202 189.350194 
" clip-path="url(#pcf16900809)" style="fill: none; stroke: #4c4c4c; stroke-linecap: round"/>
    <path d="M 125.340579 188.326004 
L 126.207202 189.350194 
L 124.867876 189.428978 
" clip-path="url(#pcf16900809)" style="fill: none; stroke: #4c4c4c; stroke-linecap: round"/>
   </g>
   <g id="patch_12">
    <path d="M 48.636377 152.861955 
Q 230.401685 162.599382 411.050561 172.277 
" clip-path="url(#pcf16900809)" style="fill: none; stroke: #4c4c4c; stroke-linecap: round"/>
    <path d="M 409.884376 171.613666 
L 411.050561 172.277 
L 409.820183 172.811947 
" clip-path="url(#pcf16900809)" style="fill: none; stroke: #4c4c4c; stroke-linecap: round"/>
   </g>
   <g id="patch_13">
    <path d="M 47.944873 115.006363 
Q 87.589855 131.997069 126.207202 148.54736 
" clip-path="url(#pcf16900809)" style="fill: none; stroke: #4c4c4c; stroke-linecap: round"/>
    <path d="M 125.340579 147.52317 
L 126.207202 148.54736 
L 124.867876 148.626144 
" clip-path="url(#pcf16900809)" style="fill: none; stroke: #4c4c4c; stroke-linecap: round"/>
   </g>
   <g id="patch_14">
    <path d="M 48.53759 112.969988 
Q 230.399429 142.197783 411.157399 171.248171 
" clip-path="url(#pcf16900809)" style="fill: none; stroke: #4c4c4c; stroke-linecap: round"/>
    <path d="M 410.067809 170.465359 
L 411.157399 171.248171 
L 409.877395 171.650156 
" clip-path="url(#pcf16900809)" style="fill: none; stroke: #4c4c4c; stroke-linecap: round"/>
   </g>
   <g id="patch_15">
    <path d="M 48.22961 73.442398 
Q 135.191121 101.394312 221.088231 129.004098 
" clip-path="url(#pcf16900809)" style="fill: none; stroke: #4c4c4c; stroke-linecap: round"/>
    <path d="M 220.129402 128.06567 
L 221.088231 129.004098 
L 219.762191 129.208104 
" clip-path="url(#pcf16900809)" style="fill: none; stroke: #4c4c4c; stroke-linecap: round"/>
   </g>
   <g id="patch_16">
    <path d="M 48.35164 73.033505 
Q 230.400934 121.796708 411.370266 170.270636 
" clip-path="url(#pcf16900809)" style="fill: none; stroke: #4c4c4c; stroke-linecap: round"/>
    <path d="M 410.36637 169.380584 
L 411.370266 170.270636 
L 410.055886 170.539722 
" clip-path="url(#pcf16900809)" style="fill: none; stroke: #4c4c4c; stroke-linecap: round"/>
   </g>
   <g id="patch_17">
    <path d="M 47.61946 34.07902 
Q 135.19297 80.993401 221.780956 127.379821 
" clip-path="url(#pcf16900809)" style="fill: none; stroke: #4c4c4c; stroke-linecap: round"/>
    <path d="M 221.006513 126.284268 
L 221.780956 127.379821 
L 220.439847 127.342044 
" clip-path="url(#pcf16900809)" style="fill: none; stroke: #4c4c4c; stroke-linecap: round"/>
   </g>
   <g id="patch_18">
    <path d="M 47.944873 33.400695 
Q 87.589855 50.391402 126.207202 66.941693 
" clip-path="url(#pcf16900809)" style="fill: none; stroke: #4c4c4c; stroke-linecap: round"/>
    <path d="M 125.340579 65.917503 
L 126.207202 66.941693 
L 124.867876 67.020477 
" clip-path="url(#pcf16900809)" style="fill: none; stroke: #4c4c4c; stroke-linecap: round"/>
   </g>
   <g id="patch_19">
    <path d="M 46.561867 35.625874 
Q 87.58992 70.792777 127.769098 105.232072 
" clip-path="url(#pcf16900809)" style="fill: none; stroke: #4c4c4c; stroke-linecap: round"/>
    <path d="M 127.248465 103.995568 
L 127.769098 105.232072 
L 126.467515 104.906676 
" clip-path="url(#pcf16900809)" style="fill: none; stroke: #4c4c4c; stroke-linecap: round"/>
   </g>
   <g id="patch_20">
    <path d="M 143.347605 73.705136 
Q 278.001158 121.795691 411.601812 169.51021 
" clip-path="url(#pcf16900809)" style="fill: none; stroke: #4c4c4c; stroke-linecap: round"/>
    <path d="M 410.673523 168.541561 
L 411.601812 169.51021 
L 410.269919 169.671652 
" clip-path="url(#pcf16900809)" style="fill: none; stroke: #4c4c4c; stroke-linecap: round"/>
   </g>
   <g id="patch_21">
    <path d="M 143.662849 150.583699 
Q 182.797535 142.197695 220.839006 134.045951 
" clip-path="url(#pcf16900809)" style="fill: none; stroke: #4c4c4c; stroke-linecap: round"/>
    <path d="M 219.539925 133.710704 
L 220.839006 134.045951 
L 219.79136 134.884067 
" clip-path="url(#pcf16900809)" style="fill: none; stroke: #4c4c4c; stroke-linecap: round"/>
   </g>
   <g id="patch_22">
    <path d="M 143.662849 232.189366 
Q 182.797535 223.803362 220.839006 215.651618 
" clip-path="url(#pcf16900809)" style="fill: none; stroke: #4c4c4c; stroke-linecap: round"/>
    <path d="M 219.539925 215.316371 
L 220.839006 215.651618 
L 219.79136 216.489734 
" clip-path="url(#pcf16900809)" style="fill: none; stroke: #4c4c4c; stroke-linecap: round"/>
   </g>
   <g id="patch_23">
    <path d="M 139.997592 267.600779 
Q 182.797206 203.401357 224.976647 140.132197 
" clip-path="url(#pcf16900809)" style="fill: none; stroke: #4c4c4c; stroke-linecap: round"/>
    <path d="M 223.811776 140.797837 
L 224.976647 140.132197 
L 224.810237 141.463477 
" clip-path="url(#pcf16900809)" style="fill: none; stroke: #4c4c4c; stroke-linecap: round"/>
   </g>
   <g id="patch_24">
    <path d="M 142.477415 270.124495 
Q 182.796285 244.205222 222.174688 218.890534 
" clip-path="url(#pcf16900809)" style="fill: none; stroke: #4c4c4c; stroke-linecap: round"/>
    <path d="M 220.84082 219.034736 
L 222.174688 218.890534 
L 221.489729 220.04415 
" clip-path="url(#pcf16900809)" style="fill: none; stroke: #4c4c4c; stroke-linecap: round"/>
   </g>
   <g id="patch_25">
    <path d="M 142.477415 188.518828 
Q 182.796285 162.599555 222.174688 137.284867 
" clip-path="url(#pcf16900809)" style="fill: none; stroke: #4c4c4c; stroke-linecap: round"/>
    <path d="M 220.84082 137.429069 
L 222.174688 137.284867 
L 221.489729 138.438483 
" clip-path="url(#pcf16900809)" style="fill: none; stroke: #4c4c4c; stroke-linecap: round"/>
   </g>
   <g id="patch_26">
    <path d="M 142.477415 116.278338 
Q 182.796285 142.197612 222.174688 167.5123 
" clip-path="url(#pcf16900809)" style="fill: none; stroke: #4c4c4c; stroke-linecap: round"/>
    <path d="M 221.489729 166.358683 
L 222.174688 167.5123 
L 220.84082 167.368098 
" clip-path="url(#pcf16900809)" style="fill: none; stroke: #4c4c4c; stroke-linecap: round"/>
   </g>
   <g id="patch_27">
    <path d="M 238.86946 133.812051 
Q 325.606185 152.398492 411.249694 170.750672 
" clip-path="url(#pcf16900809)" style="fill: none; stroke: #4c4c4c; stroke-linecap: round"/>
    <path d="M 410.202049 169.912556 
L 411.249694 170.750672 
L 409.950614 171.085919 
" clip-path="url(#pcf16900809)" style="fill: none; stroke: #4c4c4c; stroke-linecap: round"/>
   </g>
   <g id="patch_28">
    <path d="M 238.86946 211.787949 
Q 278.004147 203.401945 316.045617 195.250201 
" clip-path="url(#pcf16900809)" style="fill: none; stroke: #4c4c4c; stroke-linecap: round"/>
    <path d="M 314.746537 194.914955 
L 316.045617 195.250201 
L 314.997972 196.088318 
" clip-path="url(#pcf16900809)" style="fill: none; stroke: #4c4c4c; stroke-linecap: round"/>
   </g>
   <g id="patch_29">
    <path d="M 238.86946 170.985116 
Q 278.004147 162.599111 316.045617 154.447368 
" clip-path="url(#pcf16900809)" style="fill: none; stroke: #4c4c4c; stroke-linecap: round"/>
    <path d="M 314.746537 154.112121 
L 316.045617 154.447368 
L 314.997972 155.285484 
" clip-path="url(#pcf16900809)" style="fill: none; stroke: #4c4c4c; stroke-linecap: round"/>
   </g>
   <g id="patch_30">
    <path d="M 334.076072 191.386532 
Q 373.210759 183.000528 411.252229 174.848784 
" clip-path="url(#pcf16900809)" style="fill: none; stroke: #4c4c4c; stroke-linecap: round"/>
    <path d="M 409.953149 174.513538 
L 411.252229 174.848784 
L 410.204583 175.686901 
" clip-path="url(#pcf16900809)" style="fill: none; stroke: #4c4c4c; stroke-linecap: round"/>
   </g>
   <g id="patch_31">
    <path d="M 334.076072 154.213468 
Q 373.210759 162.599472 411.252229 170.751216 
" clip-path="url(#pcf16900809)" style="fill: none; stroke: #4c4c4c; stroke-linecap: round"/>
    <path d="M 410.204583 169.913099 
L 411.252229 170.751216 
L 409.953149 171.086462 
" clip-path="url(#pcf16900809)" style="fill: none; stroke: #4c4c4c; stroke-linecap: round"/>
   </g>
   <g id="PathCollection_1">
    <path d="M 39.986777 324.270171 
C 42.283503 324.270171 44.486471 323.357672 46.110501 321.733642 
C 47.734532 320.109611 48.647031 317.906644 48.647031 315.609917 
C 48.647031 313.313191 47.734532 311.110224 46.110501 309.486193 
C 44.486471 307.862162 42.283503 306.949663 39.986777 306.949663 
C 37.690051 306.949663 35.487083 307.862162 33.863053 309.486193 
C 32.239022 311.110224 31.326523 313.313191 31.326523 315.609917 
C 31.326523 317.906644 32.239022 320.109611 33.863053 321.733642 
C 35.487083 323.357672 37.690051 324.270171 39.986777 324.270171 
z
" clip-path="url(#pcf16900809)" style="fill: #ffff00; stroke: #000000"/>
    <path d="M 39.986777 283.467338 
C 42.283503 283.467338 44.486471 282.554839 46.110501 280.930808 
C 47.734532 279.306777 48.647031 277.10381 48.647031 274.807084 
C 48.647031 272.510358 47.734532 270.30739 46.110501 268.683359 
C 44.486471 267.059329 42.283503 266.14683 39.986777 266.14683 
C 37.690051 266.14683 35.487083 267.059329 33.863053 268.683359 
C 32.239022 270.30739 31.326523 272.510358 31.326523 274.807084 
C 31.326523 277.10381 32.239022 279.306777 33.863053 280.930808 
C 35.487083 282.554839 37.690051 283.467338 39.986777 283.467338 
z
" clip-path="url(#pcf16900809)" style="fill: #ffff00; stroke: #000000"/>
    <path d="M 39.986777 242.664504 
C 42.283503 242.664504 44.486471 241.752005 46.110501 240.127975 
C 47.734532 238.503944 48.647031 236.300977 48.647031 234.00425 
C 48.647031 231.707524 47.734532 229.504557 46.110501 227.880526 
C 44.486471 226.256495 42.283503 225.343996 39.986777 225.343996 
C 37.690051 225.343996 35.487083 226.256495 33.863053 227.880526 
C 32.239022 229.504557 31.326523 231.707524 31.326523 234.00425 
C 31.326523 236.300977 32.239022 238.503944 33.863053 240.127975 
C 35.487083 241.752005 37.690051 242.664504 39.986777 242.664504 
z
" clip-path="url(#pcf16900809)" style="fill: #ffff00; stroke: #000000"/>
    <path d="M 39.986777 201.861671 
C 42.283503 201.861671 44.486471 200.949172 46.110501 199.325141 
C 47.734532 197.70111 48.647031 195.498143 48.647031 193.201417 
C 48.647031 190.904691 47.734532 188.701723 46.110501 187.077692 
C 44.486471 185.453662 42.283503 184.541163 39.986777 184.541163 
C 37.690051 184.541163 35.487083 185.453662 33.863053 187.077692 
C 32.239022 188.701723 31.326523 190.904691 31.326523 193.201417 
C 31.326523 195.498143 32.239022 197.70111 33.863053 199.325141 
C 35.487083 200.949172 37.690051 201.861671 39.986777 201.861671 
z
" clip-path="url(#pcf16900809)" style="fill: #ffff00; stroke: #000000"/>
    <path d="M 39.986777 161.058837 
C 42.283503 161.058837 44.486471 160.146338 46.110501 158.522308 
C 47.734532 156.898277 48.647031 154.695309 48.647031 152.398583 
C 48.647031 150.101857 47.734532 147.89889 46.110501 146.274859 
C 44.486471 144.650828 42.283503 143.738329 39.986777 143.738329 
C 37.690051 143.738329 35.487083 144.650828 33.863053 146.274859 
C 32.239022 147.89889 31.326523 150.101857 31.326523 152.398583 
C 31.326523 154.695309 32.239022 156.898277 33.863053 158.522308 
C 35.487083 160.146338 37.690051 161.058837 39.986777 161.058837 
z
" clip-path="url(#pcf16900809)" style="fill: #ffff00; stroke: #000000"/>
    <path d="M 39.986777 120.256004 
C 42.283503 120.256004 44.486471 119.343505 46.110501 117.719474 
C 47.734532 116.095443 48.647031 113.892476 48.647031 111.59575 
C 48.647031 109.299023 47.734532 107.096056 46.110501 105.472025 
C 44.486471 103.847995 42.283503 102.935496 39.986777 102.935496 
C 37.690051 102.935496 35.487083 103.847995 33.863053 105.472025 
C 32.239022 107.096056 31.326523 109.299023 31.326523 111.59575 
C 31.326523 113.892476 32.239022 116.095443 33.863053 117.719474 
C 35.487083 119.343505 37.690051 120.256004 39.986777 120.256004 
z
" clip-path="url(#pcf16900809)" style="fill: #ffff00; stroke: #000000"/>
    <path d="M 39.986777 79.45317 
C 42.283503 79.45317 44.486471 78.540671 46.110501 76.916641 
C 47.734532 75.29261 48.647031 73.089642 48.647031 70.792916 
C 48.647031 68.49619 47.734532 66.293223 46.110501 64.669192 
C 44.486471 63.045161 42.283503 62.132662 39.986777 62.132662 
C 37.690051 62.132662 35.487083 63.045161 33.863053 64.669192 
C 32.239022 66.293223 31.326523 68.49619 31.326523 70.792916 
C 31.326523 73.089642 32.239022 75.29261 33.863053 76.916641 
C 35.487083 78.540671 37.690051 79.45317 39.986777 79.45317 
z
" clip-path="url(#pcf16900809)" style="fill: #ffff00; stroke: #000000"/>
    <path d="M 39.986777 38.650337 
C 42.283503 38.650337 44.486471 37.737838 46.110501 36.113807 
C 47.734532 34.489776 48.647031 32.286809 48.647031 29.990083 
C 48.647031 27.693356 47.734532 25.490389 46.110501 23.866358 
C 44.486471 22.242328 42.283503 21.329829 39.986777 21.329829 
C 37.690051 21.329829 35.487083 22.242328 33.863053 23.866358 
C 32.239022 25.490389 31.326523 27.693356 31.326523 29.990083 
C 31.326523 32.286809 32.239022 34.489776 33.863053 36.113807 
C 35.487083 37.737838 37.690051 38.650337 39.986777 38.650337 
z
" clip-path="url(#pcf16900809)" style="fill: #ffff00; stroke: #000000"/>
    <path d="M 135.193388 79.45317 
C 137.490115 79.45317 139.693082 78.540671 141.317113 76.916641 
C 142.941143 75.29261 143.853642 73.089642 143.853642 70.792916 
C 143.853642 68.49619 142.941143 66.293223 141.317113 64.669192 
C 139.693082 63.045161 137.490115 62.132662 135.193388 62.132662 
C 132.896662 62.132662 130.693695 63.045161 129.069664 64.669192 
C 127.445633 66.293223 126.533134 68.49619 126.533134 70.792916 
C 126.533134 73.089642 127.445633 75.29261 129.069664 76.916641 
C 130.693695 78.540671 132.896662 79.45317 135.193388 79.45317 
z
" clip-path="url(#pcf16900809)" style="fill: #ffffff; stroke: #000000"/>
    <path d="M 135.193388 161.058837 
C 137.490115 161.058837 139.693082 160.146338 141.317113 158.522308 
C 142.941143 156.898277 143.853642 154.695309 143.853642 152.398583 
C 143.853642 150.101857 142.941143 147.89889 141.317113 146.274859 
C 139.693082 144.650828 137.490115 143.738329 135.193388 143.738329 
C 132.896662 143.738329 130.693695 144.650828 129.069664 146.274859 
C 127.445633 147.89889 126.533134 150.101857 126.533134 152.398583 
C 126.533134 154.695309 127.445633 156.898277 129.069664 158.522308 
C 130.693695 160.146338 132.896662 161.058837 135.193388 161.058837 
z
" clip-path="url(#pcf16900809)" style="fill: #ffffff; stroke: #000000"/>
    <path d="M 135.193388 242.664504 
C 137.490115 242.664504 139.693082 241.752005 141.317113 240.127975 
C 142.941143 238.503944 143.853642 236.300977 143.853642 234.00425 
C 143.853642 231.707524 142.941143 229.504557 141.317113 227.880526 
C 139.693082 226.256495 137.490115 225.343996 135.193388 225.343996 
C 132.896662 225.343996 130.693695 226.256495 129.069664 227.880526 
C 127.445633 229.504557 126.533134 231.707524 126.533134 234.00425 
C 126.533134 236.300977 127.445633 238.503944 129.069664 240.127975 
C 130.693695 241.752005 132.896662 242.664504 135.193388 242.664504 
z
" clip-path="url(#pcf16900809)" style="fill: #ffffff; stroke: #000000"/>
    <path d="M 135.193388 283.467338 
C 137.490115 283.467338 139.693082 282.554839 141.317113 280.930808 
C 142.941143 279.306777 143.853642 277.10381 143.853642 274.807084 
C 143.853642 272.510358 142.941143 270.30739 141.317113 268.683359 
C 139.693082 267.059329 137.490115 266.14683 135.193388 266.14683 
C 132.896662 266.14683 130.693695 267.059329 129.069664 268.683359 
C 127.445633 270.30739 126.533134 272.510358 126.533134 274.807084 
C 126.533134 277.10381 127.445633 279.306777 129.069664 280.930808 
C 130.693695 282.554839 132.896662 283.467338 135.193388 283.467338 
z
" clip-path="url(#pcf16900809)" style="fill: #ffffff; stroke: #000000"/>
    <path d="M 135.193388 201.861671 
C 137.490115 201.861671 139.693082 200.949172 141.317113 199.325141 
C 142.941143 197.70111 143.853642 195.498143 143.853642 193.201417 
C 143.853642 190.904691 142.941143 188.701723 141.317113 187.077692 
C 139.693082 185.453662 137.490115 184.541163 135.193388 184.541163 
C 132.896662 184.541163 130.693695 185.453662 129.069664 187.077692 
C 127.445633 188.701723 126.533134 190.904691 126.533134 193.201417 
C 126.533134 195.498143 127.445633 197.70111 129.069664 199.325141 
C 130.693695 200.949172 132.896662 201.861671 135.193388 201.861671 
z
" clip-path="url(#pcf16900809)" style="fill: #ffffff; stroke: #000000"/>
    <path d="M 135.193388 120.256004 
C 137.490115 120.256004 139.693082 119.343505 141.317113 117.719474 
C 142.941143 116.095443 143.853642 113.892476 143.853642 111.59575 
C 143.853642 109.299023 142.941143 107.096056 141.317113 105.472025 
C 139.693082 103.847995 137.490115 102.935496 135.193388 102.935496 
C 132.896662 102.935496 130.693695 103.847995 129.069664 105.472025 
C 127.445633 107.096056 126.533134 109.299023 126.533134 111.59575 
C 126.533134 113.892476 127.445633 116.095443 129.069664 117.719474 
C 130.693695 119.343505 132.896662 120.256004 135.193388 120.256004 
z
" clip-path="url(#pcf16900809)" style="fill: #ffffff; stroke: #000000"/>
    <path d="M 230.4 140.657421 
C 232.696726 140.657421 234.899694 139.744922 236.523724 138.120891 
C 238.147755 136.49686 239.060254 134.293893 239.060254 131.997166 
C 239.060254 129.70044 238.147755 127.497473 236.523724 125.873442 
C 234.899694 124.249411 232.696726 123.336912 230.4 123.336912 
C 228.103274 123.336912 225.900306 124.249411 224.276276 125.873442 
C 222.652245 127.497473 221.739746 129.70044 221.739746 131.997166 
C 221.739746 134.293893 222.652245 136.49686 224.276276 138.120891 
C 225.900306 139.744922 228.103274 140.657421 230.4 140.657421 
z
" clip-path="url(#pcf16900809)" style="fill: #0000ff; stroke: #000000"/>
    <path d="M 230.4 222.263088 
C 232.696726 222.263088 234.899694 221.350589 236.523724 219.726558 
C 238.147755 218.102527 239.060254 215.89956 239.060254 213.602834 
C 239.060254 211.306107 238.147755 209.10314 236.523724 207.479109 
C 234.899694 205.855078 232.696726 204.942579 230.4 204.942579 
C 228.103274 204.942579 225.900306 205.855078 224.276276 207.479109 
C 222.652245 209.10314 221.739746 211.306107 221.739746 213.602834 
C 221.739746 215.89956 222.652245 218.102527 224.276276 219.726558 
C 225.900306 221.350589 228.103274 222.263088 230.4 222.263088 
z
" clip-path="url(#pcf16900809)" style="fill: #ffffff; stroke: #000000"/>
    <path d="M 230.4 181.460254 
C 232.696726 181.460254 234.899694 180.547755 236.523724 178.923724 
C 238.147755 177.299694 239.060254 175.096726 239.060254 172.8 
C 239.060254 170.503274 238.147755 168.300306 236.523724 166.676276 
C 234.899694 165.052245 232.696726 164.139746 230.4 164.139746 
C 228.103274 164.139746 225.900306 165.052245 224.276276 166.676276 
C 222.652245 168.300306 221.739746 170.503274 221.739746 172.8 
C 221.739746 175.096726 222.652245 177.299694 224.276276 178.923724 
C 225.900306 180.547755 228.103274 181.460254 230.4 181.460254 
z
" clip-path="url(#pcf16900809)" style="fill: #ffffff; stroke: #000000"/>
    <path d="M 325.606612 201.861671 
C 327.903338 201.861671 330.106305 200.949172 331.730336 199.325141 
C 333.354367 197.70111 334.266866 195.498143 334.266866 193.201417 
C 334.266866 190.904691 333.354367 188.701723 331.730336 187.077692 
C 330.106305 185.453662 327.903338 184.541163 325.606612 184.541163 
C 323.309885 184.541163 321.106918 185.453662 319.482887 187.077692 
C 317.858857 188.701723 316.946358 190.904691 316.946358 193.201417 
C 316.946358 195.498143 317.858857 197.70111 319.482887 199.325141 
C 321.106918 200.949172 323.309885 201.861671 325.606612 201.861671 
z
" clip-path="url(#pcf16900809)" style="fill: #ffffff; stroke: #000000"/>
    <path d="M 325.606612 161.058837 
C 327.903338 161.058837 330.106305 160.146338 331.730336 158.522308 
C 333.354367 156.898277 334.266866 154.695309 334.266866 152.398583 
C 334.266866 150.101857 333.354367 147.89889 331.730336 146.274859 
C 330.106305 144.650828 327.903338 143.738329 325.606612 143.738329 
C 323.309885 143.738329 321.106918 144.650828 319.482887 146.274859 
C 317.858857 147.89889 316.946358 150.101857 316.946358 152.398583 
C 316.946358 154.695309 317.858857 156.898277 319.482887 158.522308 
C 321.106918 160.146338 323.309885 161.058837 325.606612 161.058837 
z
" clip-path="url(#pcf16900809)" style="fill: #ffffff; stroke: #000000"/>
    <path d="M 420.813223 181.460254 
C 423.109949 181.460254 425.312917 180.547755 426.936947 178.923724 
C 428.560978 177.299694 429.473477 175.096726 429.473477 172.8 
C 429.473477 170.503274 428.560978 168.300306 426.936947 166.676276 
C 425.312917 165.052245 423.109949 164.139746 420.813223 164.139746 
C 418.516497 164.139746 416.313529 165.052245 414.689499 166.676276 
C 413.065468 168.300306 412.152969 170.503274 412.152969 172.8 
C 412.152969 175.096726 413.065468 177.299694 414.689499 178.923724 
C 416.313529 180.547755 418.516497 181.460254 420.813223 181.460254 
z
" clip-path="url(#pcf16900809)" style="fill: #0000ff; stroke: #000000"/>
   </g>
  </g>
 </g>
 <defs>
  <clipPath id="pcf16900809">
   <rect x="0" y="0" width="460.8" height="345.6"/>
  </clipPath>
 </defs>
</svg>
